<!--?xml version="1.0" standalone="no"?-->
              <svg id="sw-js-blob-svg" viewBox="0 0 100 100" xmlns="http://www.w3.org/2000/svg" version="1.1">
                    <defs> 
                        <linearGradient id="sw-gradient" x1="0" x2="1" y1="1" y2="0">
                            <stop id="stop1" stop-color="rgba(17, 94, 89, 1)" offset="0%"></stop>
                            <stop id="stop2" stop-color="rgba(19.858, 194.736, 79.221, 1)" offset="100%"></stop>
                        </linearGradient>
                    </defs>
                <path fill="url(#sw-gradient)" d="M7.8,-12.8C12.1,-5.6,19.2,-5.1,23,-1.4C26.7,2.2,27.2,9.1,24.6,14.9C22.1,20.7,16.5,25.4,11.5,24.1C6.4,22.7,1.8,15.2,-3,11.9C-7.9,8.6,-12.9,9.5,-18.5,7.1C-24.2,4.8,-30.3,-0.8,-30.9,-6.9C-31.6,-13,-26.7,-19.5,-20.6,-26.4C-14.5,-33.3,-7.3,-40.6,-2.8,-37.3C1.7,-34,3.4,-20,7.8,-12.8Z" width="100%" height="100%" transform="translate(50 50)" strokeWidth="0" style="transition: 0.3s;" stroke="url(#sw-gradient)"></path>
              </svg>