<?xml version="1.0" standalone="no"?>
<svg xmlns:xlink="http://www.w3.org/1999/xlink" id="wave" style="transform:rotate(180deg); transition: 0.3s" viewBox="0 0 1440 260" version="1.1" xmlns="http://www.w3.org/2000/svg"><defs><linearGradient id="sw-gradient-0" x1="0" x2="0" y1="1" y2="0"><stop stop-color="rgba(255, 255, 255, 1)" offset="0%"/><stop stop-color="rgba(234.829, 234.829, 234.829, 1)" offset="100%"/></linearGradient></defs><path style="transform:translate(0, 0px); opacity:1" fill="url(#sw-gradient-0)" d="M0,130L120,121.3C240,113,480,95,720,104C960,113,1200,147,1440,134.3C1680,121,1920,61,2160,30.3C2400,0,2640,0,2880,8.7C3120,17,3360,35,3600,73.7C3840,113,4080,173,4320,173.3C4560,173,4800,113,5040,108.3C5280,104,5520,156,5760,151.7C6000,147,6240,87,6480,73.7C6720,61,6960,95,7200,117C7440,139,7680,147,7920,125.7C8160,104,8400,52,8640,56.3C8880,61,9120,121,9360,156C9600,191,9840,199,10080,203.7C10320,208,10560,208,10800,190.7C11040,173,11280,139,11520,108.3C11760,78,12000,52,12240,65C12480,78,12720,130,12960,125.7C13200,121,13440,61,13680,34.7C13920,9,14160,17,14400,17.3C14640,17,14880,9,15120,39C15360,69,15600,139,15840,173.3C16080,208,16320,208,16560,182C16800,156,17040,104,17160,78L17280,52L17280,260L17160,260C17040,260,16800,260,16560,260C16320,260,16080,260,15840,260C15600,260,15360,260,15120,260C14880,260,14640,260,14400,260C14160,260,13920,260,13680,260C13440,260,13200,260,12960,260C12720,260,12480,260,12240,260C12000,260,11760,260,11520,260C11280,260,11040,260,10800,260C10560,260,10320,260,10080,260C9840,260,9600,260,9360,260C9120,260,8880,260,8640,260C8400,260,8160,260,7920,260C7680,260,7440,260,7200,260C6960,260,6720,260,6480,260C6240,260,6000,260,5760,260C5520,260,5280,260,5040,260C4800,260,4560,260,4320,260C4080,260,3840,260,3600,260C3360,260,3120,260,2880,260C2640,260,2400,260,2160,260C1920,260,1680,260,1440,260C1200,260,960,260,720,260C480,260,240,260,120,260L0,260Z"/></svg>